<?xml version="1.0" standalone="no"?><!-- Generator: Gravit.io --><svg xmlns="http://www.w3.org/2000/svg" xmlns:xlink="http://www.w3.org/1999/xlink" style="isolation:isolate" viewBox="23.167 9.182 152.11 30.241" width="152.11" height="30.241"><path d=" M 81 20 C 81 20 81 20 80 20 L 80 24 C 80 24 80 25 80 25 L 84 25 L 81 39 C 81 39 81 39 82 39 L 86 39 C 86 39 86 39 87 39 L 89 25 L 94 25 C 94 25 94 24 94 24 L 95 20 C 95 20 95 20 95 20 L 90 20 L 90 18 C 91 16 91 14 93 14 C 94 14 94 14 95 14 C 95 14 95 14 95 14 C 95 14 96 14 96 14 L 97 11 C 97 11 97 11 97 11 C 98 11 97 10 97 10 C 96 9 94 9 93 9 C 88 9 86 12 85 18 L 84 20 L 81 20 Z  M 104 35 C 102 35 101 34 101 33 C 101 32 102 31 105 31 C 107 31 107 32 107 32 L 107 34 C 106 35 104 35 104 35 Z  M 107 39 C 107 39 108 39 108 39 L 111 39 C 111 39 111 39 112 39 L 113 28 C 114 23 112 20 106 20 C 104 20 102 20 99 21 C 99 21 99 21 99 22 C 99 22 99 22 99 22 L 100 25 C 100 25 100 25 100 25 C 100 25 100 25 100 25 C 102 25 104 25 105 25 C 108 25 108 26 108 28 C 107 27 105 27 104 27 C 100 27 97 29 96 33 C 95 39 100 39 102 39 C 102 39 105 39 107 37 L 107 39 Z  M 127 35 C 125 35 123 32 123 30 C 124 27 126 25 129 25 C 130 25 132 25 132 26 C 133 26 133 26 133 26 C 133 26 133 26 134 26 L 136 23 C 136 23 136 23 136 23 C 136 22 136 22 136 22 C 135 20 132 20 130 20 C 124 20 119 24 118 29 C 117 35 121 39 126 39 C 129 39 131 39 134 37 C 134 37 134 37 134 36 C 134 36 134 36 134 36 L 132 33 C 132 33 132 33 132 33 C 132 33 131 33 131 34 C 130 35 128 35 127 35 Z  M 152 25 C 152 25 153 24 153 24 L 153 20 C 153 20 153 20 153 20 L 149 20 L 150 12 C 150 12 150 12 150 12 L 145 12 C 145 12 145 12 145 12 L 143 20 L 140 20 C 140 20 139 20 139 20 L 139 24 C 139 24 139 25 139 25 L 142 25 L 141 31 C 140 38 142 39 146 39 C 148 39 149 39 150 39 C 150 39 150 39 150 38 C 150 38 151 38 150 38 L 150 35 C 150 35 150 34 150 34 C 150 34 150 34 150 35 C 149 35 148 35 148 35 C 146 35 146 34 147 30 L 148 25 L 152 25 Z  M 167 20 C 162 20 156 24 155 29 C 154 35 158 39 164 39 C 169 39 174 35 175 29 C 176 24 172 20 167 20 Z  M 165 35 C 162 35 160 32 161 30 C 161 27 164 25 166 25 C 169 25 170 27 170 30 C 169 32 167 35 165 35 Z  M 32 35 C 30 35 28 32 29 30 C 29 27 32 25 34 25 C 36 25 38 27 38 30 C 37 32 35 35 32 35 Z  M 46 12 C 46 12 46 12 46 12 L 41 12 C 41 12 41 12 41 12 L 39 22 C 38 20 35 20 34 20 C 29 20 24 24 23 29 C 22 35 25 39 30 39 C 33 39 36 39 38 36 L 37 39 C 37 39 38 39 38 39 L 41 39 C 41 39 41 39 41 39 L 46 12 Z  M 66 31 C 67 30 67 30 67 29 C 68 23 64 20 59 20 C 53 20 49 24 48 30 C 47 36 51 39 56 39 C 59 39 62 39 64 37 C 64 37 64 37 64 36 C 64 36 64 36 64 36 L 63 33 C 63 33 63 33 63 33 C 62 33 62 33 62 34 C 61 35 58 35 57 35 C 56 35 53 34 53 31 L 66 31 C 66 31 66 31 66 31 Z  M 58 25 C 60 25 62 26 62 28 L 54 28 C 54 26 57 25 58 25 Z " fill-rule="evenodd" fill="rgb(46,104,159)"/></svg>